<?xml version="1.0" standalone="no"?>
<!DOCTYPE svg PUBLIC "-//W3C//DTD SVG 20010904//EN"
 "http://www.w3.org/TR/2001/REC-SVG-20010904/DTD/svg10.dtd">
<svg version="1.0" xmlns="http://www.w3.org/2000/svg"
 width="198.000000pt" height="198.000000pt" viewBox="0 0 198.000000 198.000000"
 preserveAspectRatio="xMidYMid meet">
<metadata>
Created by potrace 1.16, written by Peter Selinger 2001-2019
</metadata>
<g transform="translate(0.000000,198.000000) scale(0.100000,-0.100000)"
fill="#000000" stroke="none">
<path d="M379 1151 c-27 -28 -29 -34 -29 -110 0 -90 11 -124 47 -140 17 -8
200 -11 603 -11 l578 0 26 31 c24 28 26 39 26 116 0 80 -2 86 -29 114 l-29 29
-582 0 -582 0 -29 -29z m616 -26 c29 -28 32 -61 9 -93 -8 -12 -12 -27 -8 -33
5 -8 -1 -10 -20 -5 -14 3 -38 9 -53 12 -36 8 -53 30 -53 69 0 70 76 100 125
50z m-455 -50 c0 -51 -3 -65 -15 -65 -8 0 -15 7 -15 15 0 11 -11 15 -40 15
-29 0 -40 -4 -40 -15 0 -8 -7 -15 -15 -15 -21 0 -20 78 1 108 12 18 25 22 70
22 l54 0 0 -65z m158 30 c3 -19 -2 -33 -14 -42 -17 -12 -17 -14 1 -33 18 -19
18 -20 -2 -20 -11 0 -28 9 -38 20 -10 11 -24 20 -32 20 -7 0 -13 6 -13 14 0
10 13 16 37 18 27 2 39 8 41 21 3 14 -4 17 -42 17 l-46 0 0 -55 c0 -30 -4 -55
-10 -55 -6 0 -10 28 -10 65 l0 66 63 -3 c60 -3 62 -4 65 -33z m152 25 c0 -5
-23 -10 -51 -10 l-50 0 3 -42 3 -43 48 -3 c26 -2 47 -8 47 -13 0 -6 -24 -9
-57 -7 l-58 3 -3 63 -3 62 61 0 c33 0 60 -4 60 -10z m210 -29 c0 -47 20 -71
61 -71 29 0 29 1 29 55 0 30 4 55 9 55 12 0 17 -34 12 -87 l-3 -43 -46 0 c-62
0 -82 20 -82 82 0 26 5 48 10 48 6 0 10 -18 10 -39z m170 -26 c0 -51 -3 -65
-15 -65 -12 0 -15 14 -15 65 0 51 3 65 15 65 12 0 15 -14 15 -65z m158 27 c4
-45 -12 -62 -60 -62 -49 0 -47 23 3 30 26 4 34 10 34 25 0 16 -8 21 -42 23
l-43 3 0 -55 c0 -31 -4 -56 -10 -56 -11 0 -14 113 -3 124 4 4 32 6 63 4 54 -3
55 -3 58 -36z m162 -27 c0 -51 -3 -65 -15 -65 -8 0 -15 7 -15 15 0 11 -11 15
-40 15 -29 0 -40 -4 -40 -15 0 -8 -7 -15 -15 -15 -21 0 -20 78 1 108 12 18 25
22 70 22 l54 0 0 -65z m-710 0 c0 -11 -11 -15 -40 -15 -29 0 -40 4 -40 15 0
11 11 15 40 15 29 0 40 -4 40 -15z"/>
<path d="M900 1099 c-9 -16 -9 -28 -1 -46 9 -20 17 -24 49 -21 36 3 37 4 37
43 0 39 -1 40 -37 43 -29 3 -39 -1 -48 -19z"/>
<path d="M442 1108 c-24 -24 -13 -38 28 -38 36 0 40 3 40 25 0 21 -5 25 -28
25 -15 0 -33 -5 -40 -12z"/>
<path d="M1452 1108 c-24 -24 -13 -38 28 -38 36 0 40 3 40 25 0 21 -5 25 -28
25 -15 0 -33 -5 -40 -12z"/>
<path d="M930 820 c0 -11 7 -20 15 -20 8 0 15 6 15 14 0 8 -7 16 -15 20 -10 4
-15 -1 -15 -14z"/>
<path d="M653 822 c-29 -2 -53 -7 -53 -13 0 -5 9 -9 20 -9 18 0 20 -7 20 -55
0 -46 3 -55 18 -55 14 0 17 9 17 52 0 47 2 53 23 56 21 3 30 17 15 24 -5 2
-32 2 -60 0z"/>
<path d="M728 768 c-2 -13 -1 -34 2 -48 5 -21 13 -26 51 -30 l44 -5 2 52 c1
40 -2 53 -13 53 -9 0 -14 -11 -14 -29 0 -16 -6 -33 -13 -39 -15 -13 -39 0 -37
19 7 46 -14 70 -22 27z"/>
<path d="M859 785 c-1 -3 -1 -14 -1 -25 0 -53 3 -70 12 -70 6 0 10 14 10 30 0
18 6 33 15 36 25 10 17 34 -10 34 -14 0 -25 -2 -26 -5z"/>
<path d="M932 738 c4 -67 22 -65 26 2 2 40 0 50 -13 50 -13 0 -15 -10 -13 -52z"/>
<path d="M987 783 c-16 -15 -6 -43 18 -49 14 -3 25 -10 25 -15 0 -5 -12 -6
-26 -3 -20 5 -25 3 -22 -7 7 -22 60 -24 75 -3 15 21 1 44 -28 44 -11 0 -19 5
-19 11 0 7 10 9 25 5 18 -5 25 -2 25 9 0 10 -10 15 -33 15 -19 0 -37 -3 -40
-7z"/>
<path d="M1090 732 c0 -61 16 -62 22 -2 4 50 32 48 36 -2 4 -51 32 -53 32 -3
0 19 5 35 10 35 6 0 13 0 18 0 4 1 9 -15 12 -35 3 -20 10 -36 15 -36 12 0 19
45 11 76 -5 21 -11 23 -81 23 l-75 1 0 -57z"/>
<path d="M1280 771 c-23 -45 -5 -81 40 -81 29 0 60 27 60 52 0 42 -80 65 -100
29z m61 -45 c-16 -19 -41 -10 -41 14 0 24 21 31 39 14 11 -10 12 -16 2 -28z"/>
</g>
</svg>
