<?xml version="1.0" standalone="no"?>
<!DOCTYPE svg PUBLIC "-//W3C//DTD SVG 20010904//EN"
 "http://www.w3.org/TR/2001/REC-SVG-20010904/DTD/svg10.dtd">
<svg version="1.0" xmlns="http://www.w3.org/2000/svg"
 width="900.000000pt" height="900.000000pt" viewBox="0 0 900.000000 900.000000"
 preserveAspectRatio="xMidYMid meet">

<g transform="translate(0.000000,900.000000) scale(0.100000,-0.100000)"
fill="#000000" stroke="none">
<path d="M820 7796 c-115 -32 -202 -106 -253 -214 l-32 -67 -3 -2078 -2 -2077
3957 2 3958 3 0 2065 0 2065 -23 58 c-43 105 -126 189 -229 232 -48 20 -86 20
-3688 22 -2894 1 -3649 -1 -3685 -11z m7270 -2241 l0 -1905 -3590 0 -3590 0 0
1905 0 1905 3590 0 3590 0 0 -1905z"/>
<path d="M532 2848 l3 -423 28 -56 c34 -70 109 -142 185 -177 l57 -27 1468 -3
1468 -2 -3 -333 -3 -333 -38 -77 c-57 -116 -136 -173 -271 -198 l-66 -12 0
-79 0 -78 1135 0 1136 0 -3 78 -3 77 -63 12 c-136 27 -238 106 -284 221 -22
55 -23 70 -26 390 l-3 332 1433 0 c1591 0 1503 -4 1605 66 90 62 138 143 154
262 5 43 9 229 7 427 l-3 350 -3958 3 -3958 2 3 -422z m4068 54 c108 -66 139
-197 70 -305 -75 -118 -239 -136 -339 -36 -44 44 -61 86 -61 154 0 70 17 112
66 159 71 69 177 80 264 28z"/>
</g>
</svg>
