<?xml version="1.0" standalone="no"?>
<!DOCTYPE svg PUBLIC "-//W3C//DTD SVG 20010904//EN"
 "http://www.w3.org/TR/2001/REC-SVG-20010904/DTD/svg10.dtd">
<svg version="1.0" xmlns="http://www.w3.org/2000/svg"
 width="640.000000pt" height="640.000000pt" viewBox="0 0 640.000000 640.000000"
 preserveAspectRatio="xMidYMid meet">

<g transform="translate(0.000000,640.000000) scale(0.100000,-0.100000)"
fill="#000000" stroke="none">
<path d="M810 3770 l0 -1280 595 0 595 0 0 1280 0 1280 -595 0 -595 0 0 -1280z
m1038 903 l-3 -128 -442 -3 -443 -2 0 130 0 130 445 0 446 0 -3 -127z m100
-340 c-3 -17 -38 -18 -546 -21 -537 -2 -542 -2 -542 18 0 20 6 20 546 20 514
0 545 -1 542 -17z m2 -243 c0 -20 -7 -20 -545 -20 -538 0 -545 0 -545 20 0 20
7 20 545 20 538 0 545 0 545 -20z m-300 -785 l0 -575 -245 0 -245 0 0 575 0
575 245 0 245 0 0 -575z"/>
<path d="M1398 4762 l-398 -2 0 -88 0 -87 402 2 402 2 1 81 c0 45 -2 84 -5 88
-3 4 -184 6 -402 4z m287 -92 c0 -23 -616 -28 -635 -5 -10 12 -9 16 8 22 11 5
157 6 324 3 260 -4 303 -7 303 -20z m91 15 c7 -18 -12 -45 -32 -45 -15 0 -28
35 -19 50 9 15 45 12 51 -5z"/>
<path d="M1250 3308 l0 -488 135 -1 c74 -1 141 -2 148 -3 6 -1 15 2 18 7 3 5
4 221 2 480 -2 260 -3 477 -3 482 0 6 -56 10 -150 10 l-150 0 0 -487z m190
350 c24 -26 25 -45 3 -70 -18 -20 -45 -23 -74 -8 -27 15 -25 64 3 84 30 21 43
20 68 -6z m0 -328 c11 -11 20 -27 20 -35 0 -21 -36 -55 -59 -55 -45 0 -66 57
-34 92 21 24 48 23 73 -2z m5 -334 c34 -51 -30 -111 -75 -71 -11 10 -20 26
-20 37 0 56 65 80 95 34z"/>
<path d="M1377 3653 c-12 -11 -7 -50 7 -62 21 -18 56 3 56 33 0 29 -44 49 -63
29z"/>
<path d="M1371 3312 c-13 -25 5 -52 34 -52 29 0 39 14 31 46 -8 29 -50 34 -65
6z"/>
<path d="M1387 2999 c-19 -11 -23 -54 -6 -64 5 -4 21 -4 35 -1 17 5 24 13 24
31 0 29 -28 47 -53 34z"/>
<path d="M2344 4916 l-34 -34 0 -936 c0 -1029 -3 -978 60 -1011 25 -13 118
-15 680 -15 412 0 650 -4 650 -10 0 -5 -29 -70 -64 -144 l-64 -135 -283 -3
c-270 -3 -286 -5 -333 -26 -56 -26 -96 -64 -96 -93 0 -19 16 -19 1095 -19
1065 0 1095 1 1095 19 0 27 -56 78 -109 97 -38 15 -94 19 -326 23 l-280 6 -57
118 c-32 65 -61 129 -64 143 l-6 24 321 0 c314 0 321 0 321 -20 0 -18 7 -20
75 -20 68 0 75 2 75 20 0 16 7 20 36 20 27 0 37 -5 41 -20 5 -18 14 -20 74
-20 62 0 69 2 69 20 0 17 7 20 40 20 33 0 40 -3 40 -20 0 -18 7 -20 75 -20 68
0 75 2 75 20 0 16 7 20 31 20 44 0 95 34 108 72 8 21 11 316 11 960 l0 930
-34 34 -34 34 -1577 0 -1577 0 -34 -34z m3096 -881 l0 -765 -1485 0 -1485 0 0
765 0 765 1485 0 1485 0 0 -765z"/>
<path d="M4680 2078 c-18 -13 -43 -36 -54 -51 -20 -27 -21 -40 -21 -311 l0
-283 28 -36 c47 -62 66 -67 251 -67 190 0 217 7 260 73 l26 41 0 274 0 274
-27 38 c-46 63 -70 70 -262 70 -158 0 -170 -1 -201 -22z"/>
<path d="M1480 1663 l0 -333 1395 0 1395 0 -2 333 -3 332 -1392 1 -1393 1 0
-334z m198 259 l3 -53 -88 3 -88 3 -3 39 c-6 65 -2 67 90 64 l83 -3 3 -53z
m197 3 l0 -50 -87 -3 -88 -3 0 49 c0 27 3 52 7 56 4 4 43 5 88 4 l80 -3 0 -50z
m198 0 l0 -50 -87 -3 -86 -3 0 56 0 56 86 -3 87 -3 0 -50z m197 0 l0 -55 -85
0 -85 0 0 55 0 55 85 0 85 0 0 -55z m198 -2 l3 -53 -85 0 -86 0 0 55 0 56 83
-3 82 -3 3 -52z m200 -1 l3 -53 -88 3 -88 3 -3 29 c-2 15 -1 39 3 53 5 23 8
24 88 21 l82 -3 3 -53z m197 3 l0 -50 -85 0 -85 0 -3 39 c-6 65 -2 67 90 64
l83 -3 0 -50z m198 48 c2 -5 2 -29 -1 -55 l-4 -48 -84 0 -84 0 0 48 c0 27 3
52 7 55 9 10 161 9 166 0z m197 -48 l0 -55 -85 0 -85 0 0 48 c0 27 3 52 7 55
3 4 42 7 85 7 l78 0 0 -55z m200 0 l0 -55 -85 0 -85 0 0 55 0 55 85 0 85 0 0
-55z m200 0 l0 -55 -85 0 -85 0 0 55 0 55 85 0 85 0 0 -55z m195 0 l0 -50 -82
-3 -81 -3 -4 51 c-1 29 -1 54 2 56 2 3 40 3 85 2 l80 -3 0 -50z m200 0 l0 -50
-87 -3 -88 -3 0 49 c0 27 3 52 7 56 4 4 43 5 88 4 l80 -3 0 -50z m195 0 l0
-55 -85 0 -85 0 0 48 c0 27 3 52 7 55 3 4 42 7 85 7 l78 0 0 -55z m-2485 -130
l0 -50 -130 0 -130 0 -3 39 c-6 67 -7 67 135 64 l128 -3 0 -50z m195 0 l0 -56
-82 3 -83 3 -3 39 c-5 63 -2 66 88 66 l80 0 0 -55z m190 0 l0 -55 -78 0 c-43
0 -81 2 -83 4 -2 2 -2 27 -1 55 l4 51 79 0 79 0 0 -55z m188 -2 l3 -53 -80 0
-81 0 0 55 0 56 78 -3 77 -3 3 -52z m192 2 l0 -56 -82 3 -83 3 -3 39 c-5 63
-2 66 88 66 l80 0 0 -55z m190 0 l0 -55 -79 0 c-63 0 -80 3 -85 16 -8 21 -8
79 1 87 3 4 42 7 85 7 l78 0 0 -55z m188 -2 l3 -53 -80 0 -81 0 0 55 0 56 78
-3 77 -3 3 -52z m192 2 l0 -55 -78 0 c-43 0 -81 2 -83 4 -2 2 -2 27 -1 55 l4
51 79 0 79 0 0 -55z m190 0 l0 -55 -78 0 c-43 0 -81 2 -83 4 -2 2 -2 27 -1 55
l4 51 79 0 79 0 0 -55z m188 -2 l3 -53 -80 0 -81 0 0 55 0 56 78 -3 77 -3 3
-52z m192 2 l0 -55 -78 0 c-43 0 -81 2 -83 4 -2 2 -2 27 -1 55 l4 51 79 0 79
0 0 -55z m190 0 l0 -55 -80 0 -80 0 0 55 0 55 80 0 80 0 0 -55z m190 0 l0 -55
-80 0 -80 0 0 55 0 55 80 0 80 0 0 -55z m202 -65 l-3 -121 -82 3 -82 3 -3 118
-3 117 88 0 88 0 -3 -120z m-2422 -68 l0 -52 -162 2 -163 3 -3 39 c-2 21 -1
43 1 50 3 7 54 11 166 11 l161 0 0 -53z m196 49 c7 -1 11 -19 10 -48 l-1 -48
-82 -3 -83 -3 0 50 c0 49 1 50 33 53 28 3 87 2 123 -1z m202 0 c9 -1 12 -15
10 -48 l-3 -48 -82 -3 -83 -3 0 50 c0 27 5 51 10 53 9 3 111 2 148 -1z m210
-49 l3 -53 -83 3 -83 3 -3 39 c-5 59 -2 61 84 61 l79 0 3 -53z m195 49 c4 -1
7 -22 5 -48 l-3 -48 -80 0 -80 0 -3 47 -3 47 63 3 c35 2 70 2 78 1 8 -1 19 -2
23 -2z m190 0 c14 -1 17 -10 17 -51 l0 -51 -82 3 -83 3 -3 44 c-2 24 1 47 6
50 9 5 69 6 145 2z m210 0 c4 -1 7 -24 7 -51 l0 -51 -82 3 -83 3 -3 47 -3 47
38 3 c31 2 90 2 126 -1z m205 -49 l3 -52 -80 0 c-77 0 -81 1 -82 23 -5 77 -9
72 56 77 103 9 100 10 103 -48z m163 48 l39 0 0 -50 0 -50 -80 0 -80 0 0 49
c0 46 2 50 28 54 15 2 33 2 40 0 8 -1 31 -3 53 -3z m242 -33 c-1 -18 -2 -40
-2 -49 -1 -16 -12 -18 -81 -18 l-80 0 0 50 0 49 68 3 c93 4 97 3 95 -35z m165
33 l43 0 -3 -47 -3 -48 -82 -3 -83 -3 0 50 c0 43 3 50 23 54 12 3 31 3 42 1
11 -2 39 -4 63 -4z m237 -46 l0 -49 -82 -3 -83 -3 0 50 0 50 68 3 c102 5 97 7
97 -48z m-2277 -132 l-3 -47 -130 0 -130 0 -3 39 c-2 21 -1 43 1 50 3 8 44 10
136 8 l132 -3 -3 -47z m183 49 c4 -1 5 -22 4 -48 l-3 -48 -81 -3 -81 -3 0 49
c0 27 2 51 5 54 4 4 109 3 156 -1z m193 -46 l0 -50 -82 -3 -82 -3 0 49 c0 27
2 51 4 53 3 2 40 4 83 4 l78 0 -1 -50z m186 -2 l0 -53 -79 0 -79 0 -4 51 c-1
28 -2 51 -1 52 1 1 38 2 82 2 l81 0 0 -52z m190 0 l0 -53 -80 0 c-76 0 -80 1
-82 23 -4 55 -4 72 3 77 4 3 41 5 83 5 l76 1 0 -53z m180 48 c12 -1 14 -12 12
-51 l-4 -51 -81 3 -82 3 -3 47 -3 47 53 3 c29 2 62 2 73 1 11 -1 27 -2 35 -2z
m200 -49 l0 -53 -82 3 -83 3 -3 39 c-5 60 -2 62 87 62 l81 -1 0 -53z m188 0
l3 -53 -83 3 -83 3 -3 39 c-5 59 -2 61 84 61 l79 0 3 -53z m187 2 l0 -49 -82
-3 -83 -3 0 50 0 50 63 3 c107 5 102 8 102 -48z m190 0 l0 -49 -82 -3 -83 -3
0 49 c0 27 2 51 5 53 2 3 40 4 82 3 l78 -2 0 -48z m190 -1 l0 -48 -82 -3 -83
-3 0 49 c0 27 2 51 4 53 2 2 40 3 83 2 l78 -2 0 -48z m595 0 l0 -53 -70 0 -70
0 0 -30 c0 -28 -2 -30 -40 -30 -38 0 -40 2 -40 30 l0 29 -82 3 -83 3 -3 44
c-2 24 1 47 6 50 6 3 94 6 196 6 l186 0 0 -52z m-402 0 l-3 -48 -82 -3 -83 -3
0 51 0 50 86 0 85 0 -3 -47z m-2160 -125 l-3 -53 -90 0 -90 0 -3 39 c-5 64 -3
66 98 66 l91 0 -3 -52z m187 -3 l0 -50 -60 0 -60 0 -3 53 -3 53 63 -3 63 -3 0
-50z m190 0 l0 -50 -60 0 -60 0 -3 39 c-5 62 0 68 65 64 l58 -3 0 -50z m190 0
l0 -50 -60 0 -60 0 -3 53 -3 53 63 -3 63 -3 0 -50z m990 0 l0 -50 -462 -3
-463 -2 0 48 c0 27 3 51 6 54 3 3 211 5 462 5 l457 -2 0 -50z m183 0 l-3 -50
-60 0 -60 0 -3 39 c-5 60 -1 64 68 63 l61 -1 -3 -51z m184 50 c10 -4 12 -18 8
-53 l-5 -47 -60 0 -60 0 -3 39 c-5 59 1 66 57 66 27 0 56 -2 63 -5z m201 -6
c2 -2 2 -26 -1 -52 l-4 -48 -62 3 -61 3 -3 39 c-5 60 -1 64 67 62 34 -2 62 -4
64 -7z m152 -69 c0 -22 -5 -25 -37 -28 -36 -3 -38 -2 -38 28 0 30 2 31 38 28
32 -3 37 -6 37 -28z m143 3 c-3 -24 -8 -28 -40 -31 -36 -3 -38 -2 -38 27 0 30
2 31 41 31 38 0 40 -1 37 -27z m142 -4 c0 -29 -2 -30 -37 -27 -33 3 -38 7 -41
31 -3 26 -1 27 37 27 39 0 41 -1 41 -31z"/>
</g>
</svg>
