<?xml version="1.0" standalone="no"?>
<!DOCTYPE svg PUBLIC "-//W3C//DTD SVG 20010904//EN"
 "http://www.w3.org/TR/2001/REC-SVG-20010904/DTD/svg10.dtd">
<svg version="1.0" xmlns="http://www.w3.org/2000/svg"
 width="256.000000pt" height="256.000000pt" viewBox="0 0 256.000000 256.000000"
 preserveAspectRatio="xMidYMid meet">

<g transform="translate(0.000000,256.000000) scale(0.100000,-0.100000)"
fill="#000000" stroke="none">
<path d="M190 2150 c-19 -19 -20 -33 -20 -548 0 -500 1 -530 18 -545 17 -15
55 -17 345 -17 l327 0 0 -59 0 -59 -62 -4 c-51 -4 -65 -9 -85 -32 -12 -15 -23
-31 -23 -37 0 -5 114 -9 289 -9 281 0 289 1 284 19 -9 36 -41 55 -103 59 l-60
4 0 59 0 59 332 2 332 3 13 25 c10 20 12 139 10 548 -2 505 -3 524 -21 538
-17 12 -140 14 -788 14 -755 0 -768 0 -788 -20z m795 0 c3 -5 1 -10 -4 -10 -6
0 -11 5 -11 10 0 6 2 10 4 10 3 0 8 -4 11 -10z m750 -500 l0 -465 -757 -3
-758 -2 0 470 0 470 758 -2 757 -3 0 -465z m-67 -537 c-4 -22 -22 -20 -26 1
-2 10 3 16 13 16 10 0 15 -7 13 -17z"/>
<path d="M1896 2148 c-14 -20 -16 -118 -16 -863 0 -657 3 -845 13 -858 11 -16
37 -17 282 -15 l270 3 3 865 c2 804 1 866 -15 878 -12 9 -83 12 -269 12 -250
0 -253 0 -268 -22z m502 -105 c3 -10 -47 -13 -227 -13 -200 0 -231 2 -231 15
0 13 29 15 227 13 170 -2 227 -6 231 -15z m-8 -68 c0 -6 -83 -11 -225 -13
-197 -2 -225 0 -225 13 0 13 28 15 225 13 142 -2 225 -7 225 -13z m7 -321 c3
-9 0 -20 -8 -25 -8 -5 -111 -8 -229 -6 -215 2 -215 2 -218 25 l-3 22 226 0
c198 0 226 -2 232 -16z m-2 -89 c0 -19 -8 -20 -219 -23 -130 -1 -224 2 -229 7
-5 5 -7 17 -4 26 6 13 34 15 229 13 215 -3 223 -4 223 -23z m3 -87 c3 -17 -13
-18 -227 -18 -225 0 -231 1 -231 20 0 20 5 20 227 18 208 -3 228 -5 231 -20z
m-3 -83 c0 -19 -8 -20 -219 -23 -130 -1 -224 2 -229 7 -5 5 -7 17 -4 26 6 13
34 15 229 13 215 -3 223 -4 223 -23z m-182 -596 c5 -9 7 -28 3 -42 -7 -30 -49
-46 -75 -30 -20 13 -26 60 -10 79 16 19 69 14 82 -7z m-20 -181 c7 -21 -4 -38
-23 -38 -23 0 -34 16 -26 35 7 18 43 20 49 3z"/>
<path d="M195 614 c-44 -91 -81 -169 -83 -175 -2 -5 327 -9 867 -9 l870 0 -83
173 -82 172 -705 2 -704 2 -80 -165z m1520 -4 c38 -76 67 -142 64 -145 -3 -3
-366 -4 -806 -3 l-801 3 69 143 68 142 668 0 669 0 69 -140z"/>
<path d="M356 714 c-5 -12 1 -15 31 -12 48 4 57 28 10 28 -22 0 -37 -6 -41
-16z"/>
<path d="M477 723 c-15 -14 -5 -23 27 -23 21 0 36 6 40 15 4 11 -2 15 -28 15
-18 0 -36 -3 -39 -7z"/>
<path d="M590 714 c0 -11 8 -14 32 -12 46 4 49 28 4 28 -26 0 -36 -4 -36 -16z"/>
<path d="M710 715 c0 -10 11 -15 35 -15 24 0 35 5 35 15 0 10 -11 15 -35 15
-24 0 -35 -5 -35 -15z"/>
<path d="M830 714 c0 -11 8 -14 32 -12 46 4 49 28 4 28 -26 0 -36 -4 -36 -16z"/>
<path d="M940 715 c0 -10 11 -15 35 -15 24 0 35 5 35 15 0 10 -11 15 -35 15
-24 0 -35 -5 -35 -15z"/>
<path d="M1060 715 c0 -10 11 -15 35 -15 24 0 35 5 35 15 0 10 -11 15 -35 15
-24 0 -35 -5 -35 -15z"/>
<path d="M1180 715 c0 -10 11 -15 35 -15 24 0 35 5 35 15 0 10 -11 15 -35 15
-24 0 -35 -5 -35 -15z"/>
<path d="M1300 715 c0 -10 11 -15 35 -15 24 0 35 5 35 15 0 10 -11 15 -35 15
-24 0 -35 -5 -35 -15z"/>
<path d="M1412 718 c3 -7 21 -14 41 -16 30 -3 36 0 31 12 -8 20 -78 23 -72 4z"/>
<path d="M1532 718 c7 -20 68 -23 68 -4 0 12 -10 16 -36 16 -24 0 -34 -4 -32
-12z"/>
<path d="M337 673 c-15 -14 -5 -23 27 -23 21 0 36 6 40 15 4 11 -2 15 -28 15
-18 0 -36 -3 -39 -7z"/>
<path d="M456 664 c-5 -12 1 -15 31 -12 48 4 57 28 10 28 -22 0 -37 -6 -41
-16z"/>
<path d="M577 673 c-15 -15 -5 -23 28 -23 24 0 35 5 35 15 0 15 -50 22 -63 8z"/>
<path d="M696 664 c-5 -12 1 -15 31 -12 48 4 57 28 10 28 -22 0 -37 -6 -41
-16z"/>
<path d="M820 665 c0 -10 11 -15 35 -15 24 0 35 5 35 15 0 10 -11 15 -35 15
-24 0 -35 -5 -35 -15z"/>
<path d="M940 665 c0 -10 11 -15 35 -15 24 0 35 5 35 15 0 10 -11 15 -35 15
-24 0 -35 -5 -35 -15z"/>
<path d="M1070 666 c0 -12 10 -16 36 -16 45 0 42 24 -4 28 -24 2 -32 -1 -32
-12z"/>
<path d="M1192 668 c3 -7 21 -14 41 -16 30 -3 36 0 31 12 -8 20 -78 23 -72 4z"/>
<path d="M1316 666 c4 -10 19 -16 41 -16 47 0 38 24 -10 28 -30 3 -36 0 -31
-12z"/>
<path d="M1432 668 c3 -7 21 -14 41 -16 30 -3 36 0 31 12 -8 20 -78 23 -72 4z"/>
<path d="M1552 668 c3 -7 22 -14 42 -16 28 -2 37 0 34 10 -3 7 -22 14 -42 16
-28 2 -37 0 -34 -10z"/>
<path d="M307 613 c-15 -14 -5 -23 27 -23 21 0 36 6 40 15 4 11 -2 15 -28 15
-18 0 -36 -3 -39 -7z"/>
<path d="M437 613 c-15 -14 -5 -23 27 -23 21 0 36 6 40 15 4 11 -2 15 -28 15
-18 0 -36 -3 -39 -7z"/>
<path d="M550 605 c0 -10 10 -15 34 -15 21 0 36 6 40 15 4 12 -3 15 -34 15
-29 0 -40 -4 -40 -15z"/>
<path d="M680 605 c0 -10 11 -15 35 -15 24 0 35 5 35 15 0 10 -11 15 -35 15
-24 0 -35 -5 -35 -15z"/>
<path d="M816 604 c-5 -12 1 -15 31 -12 48 4 57 28 10 28 -22 0 -37 -6 -41
-16z"/>
<path d="M940 605 c0 -10 11 -15 35 -15 24 0 35 5 35 15 0 10 -11 15 -35 15
-24 0 -35 -5 -35 -15z"/>
<path d="M1070 605 c0 -10 11 -15 35 -15 24 0 35 5 35 15 0 10 -11 15 -35 15
-24 0 -35 -5 -35 -15z"/>
<path d="M1210 605 c0 -10 11 -15 35 -15 24 0 35 5 35 15 0 10 -11 15 -35 15
-24 0 -35 -5 -35 -15z"/>
<path d="M1336 606 c4 -10 19 -16 41 -16 47 0 38 24 -10 28 -30 3 -36 0 -31
-12z"/>
<path d="M1456 606 c4 -10 19 -16 41 -16 47 0 38 24 -10 28 -30 3 -36 0 -31
-12z"/>
<path d="M1582 608 c3 -7 22 -14 42 -16 28 -2 37 0 34 10 -3 7 -22 14 -42 16
-28 2 -37 0 -34 -10z"/>
<path d="M282 558 c-20 -20 -14 -28 22 -28 29 0 46 13 46 36 0 10 -57 3 -68
-8z"/>
<path d="M417 563 c-19 -18 -6 -34 25 -31 44 4 53 38 10 38 -16 0 -32 -3 -35
-7z"/>
<path d="M536 554 c-9 -24 -9 -24 28 -24 22 0 36 6 40 16 9 24 9 24 -28 24
-22 0 -36 -6 -40 -16z"/>
<path d="M666 554 c-9 -24 -9 -24 28 -24 31 0 53 19 39 34 -13 13 -61 5 -67
-10z"/>
<path d="M810 550 c0 -16 7 -20 35 -20 28 0 35 4 35 20 0 16 -7 20 -35 20 -28
0 -35 -4 -35 -20z"/>
<path d="M945 560 c-11 -17 5 -30 36 -30 22 0 29 5 29 20 0 15 -7 20 -29 20
-17 0 -33 -4 -36 -10z"/>
<path d="M1080 551 c0 -17 6 -21 36 -21 28 0 35 3 32 18 -2 11 -14 18 -36 20
-27 3 -32 0 -32 -17z"/>
<path d="M1224 554 c3 -9 6 -18 6 -20 0 -6 56 -5 63 2 15 15 -8 34 -40 34 -28
0 -34 -3 -29 -16z"/>
<path d="M1354 554 c3 -9 6 -18 6 -20 0 -6 56 -5 63 2 15 15 -8 34 -40 34 -28
0 -34 -3 -29 -16z"/>
<path d="M1470 563 c0 -18 25 -33 53 -33 22 0 28 4 25 18 -2 12 -14 18 -41 20
-20 2 -37 -1 -37 -5z"/>
<path d="M1612 553 c2 -12 14 -19 36 -21 28 -3 33 0 30 15 -2 12 -14 19 -36
21 -28 3 -33 0 -30 -15z"/>
<path d="M246 495 c-4 -12 3 -15 34 -15 29 0 40 4 40 15 0 10 -10 15 -34 15
-21 0 -36 -6 -40 -15z"/>
<path d="M390 495 c0 -10 11 -15 35 -15 24 0 35 5 35 15 0 10 -11 15 -35 15
-24 0 -35 -5 -35 -15z"/>
<path d="M516 495 c-5 -13 51 -15 464 -15 413 0 469 2 464 15 -5 13 -66 15
-464 15 -398 0 -459 -2 -464 -15z"/>
<path d="M1496 496 c4 -10 19 -16 41 -16 47 0 38 24 -10 28 -30 3 -36 0 -31
-12z"/>
<path d="M1636 496 c4 -10 19 -16 41 -16 47 0 38 24 -10 28 -30 3 -36 0 -31
-12z"/>
<path d="M110 405 c0 -13 103 -15 870 -15 767 0 870 2 870 15 0 13 -103 15
-870 15 -767 0 -870 -2 -870 -15z"/>
</g>
</svg>
